<?xml version="1.0" encoding="UTF-8" standalone="no"?>
<svg
   xmlns:dc="http://purl.org/dc/elements/1.1/"
   xmlns:cc="http://creativecommons.org/ns#"
   xmlns:rdf="http://www.w3.org/1999/02/22-rdf-syntax-ns#"
   xmlns:svg="http://www.w3.org/2000/svg"
   xmlns="http://www.w3.org/2000/svg"
   version="1.1"
   id="svg4143"
   viewBox="0 0 512.00001 512.00001"
   height="512"
   width="512">
  <defs
     id="defs4145">
    <filter
       height="1.8952"
       y="-0.4476"
       width="1.8952"
       x="-0.4476"
       id="filter9402"
       style="color-interpolation-filters:sRGB">
      <feGaussianBlur
         id="feGaussianBlur9404"
         stdDeviation="95.488" />
    </filter>
  </defs>
  <metadata
     id="metadata4148">
    <rdf:RDF>
      <cc:Work
         rdf:about="">
        <dc:format>image/svg+xml</dc:format>
        <dc:type
           rdf:resource="http://purl.org/dc/dcmitype/StillImage" />
        <dc:title></dc:title>
      </cc:Work>
    </rdf:RDF>
  </metadata>
  <g
     transform="translate(0,-540.36216)"
     id="layer1">
    <g
       id="g9406">
      <circle
         style="opacity:1;fill:#4bff5c;fill-opacity:0.99607843;stroke:none;stroke-width:12;stroke-linecap:round;stroke-linejoin:round;stroke-miterlimit:4;stroke-dasharray:72, 72;stroke-dashoffset:0;stroke-opacity:1"
         id="path4691"
         cx="256"
         cy="796.36218"
         r="256" />
      <circle
         r="256"
         cy="796.36218"
         cx="256"
         id="circle9344"
         style="opacity:0.525;fill:#000000;fill-opacity:0.99607843;stroke:none;stroke-width:12;stroke-linecap:round;stroke-linejoin:round;stroke-miterlimit:4;stroke-dasharray:72, 72;stroke-dashoffset:0;stroke-opacity:1;filter:url(#filter9402)"
         transform="matrix(0.33393468,0,0,0.1107204,170.51273,872.47436)" />
      <g
         id="g9323">
        <circle
           r="78.21315"
           cy="757.39764"
           cx="256.57874"
           id="path4691-7"
           style="opacity:1;fill:#ffffff;fill-opacity:0.99607843;stroke:none;stroke-width:12;stroke-linecap:round;stroke-linejoin:round;stroke-miterlimit:4;stroke-dasharray:72, 72;stroke-dashoffset:0;stroke-opacity:1" />
        <path
           style="fill:#0084e8;fill-opacity:1"
           d="m 252.68965,953.52927 c -3.58985,-4.61259 -9.08121,-12.12144 -9.08121,-12.4176 0,-0.16938 -0.10902,-0.35295 -0.24225,-0.40797 -0.25654,-0.1059 -2.15154,-2.61903 -4.82075,-6.39325 -1.5431,-2.18193 -2.26905,-2.79634 -1.54476,-1.30743 0.32774,0.67373 0.32265,0.67794 -0.13231,0.1093 -0.26025,-0.32527 -0.40185,-0.77727 -0.31467,-1.00445 0.0872,-0.22718 -0.24734,-0.92548 -0.74338,-1.55178 -0.49604,-0.6263 -0.90188,-1.23019 -0.90188,-1.34198 0,-0.11179 -0.16875,-0.39143 -0.375,-0.62142 -0.96036,-1.07088 -2.925,-3.87895 -2.925,-4.18069 0,-0.20664 -0.43472,-0.77178 -1.41819,-1.84367 -0.3675,-0.40054 -0.6375,-0.78831 -0.6,-0.86171 0.0375,-0.0734 -0.13624,-0.37408 -0.38609,-0.66818 -0.24985,-0.2941 -0.78618,-1.00723 -1.19185,-1.58473 -0.40566,-0.5775 -0.97749,-1.3117 -1.27072,-1.63157 -0.29324,-0.31986 -0.53315,-0.69228 -0.53315,-0.82759 0,-0.13532 -0.37125,-0.76893 -0.825,-1.40801 -0.45375,-0.63909 -1.0275,-1.46318 -1.275,-1.83132 -0.42188,-0.6275 -1.79544,-2.48196 -2.33427,-3.15151 -0.13279,-0.165 -0.68509,-1.07761 -1.22733,-2.02803 -0.54225,-0.95041 -1.11356,-1.64913 -1.26959,-1.5527 -0.15602,0.0964 -0.24658,0.0618 -0.20125,-0.0771 0.0682,-0.20881 -1.40107,-2.73575 -2.23401,-3.84219 -0.12422,-0.165 -0.99974,-1.47089 -1.94561,-2.90197 -0.94586,-1.43109 -1.85885,-2.52319 -2.02885,-2.4269 -0.17,0.0963 -0.21259,0.0682 -0.0947,-0.0625 0.20825,-0.23068 -0.16002,-1.14244 -0.72291,-1.78975 -0.15252,-0.1754 -0.70801,-1.01333 -1.23442,-1.86207 -0.52641,-0.84874 -1.62922,-2.53624 -2.45068,-3.75 -0.82146,-1.21376 -1.49646,-2.29726 -1.5,-2.40779 -0.004,-0.11053 -0.31018,-0.55031 -0.68143,-0.97728 -0.37125,-0.42698 -0.675,-0.90065 -0.675,-1.05261 0,-0.15196 -0.17312,-0.45468 -0.3847,-0.67272 -0.21159,-0.21804 -1.25311,-1.81393 -2.3145,-3.54643 -1.06138,-1.7325 -2.03576,-3.195 -2.16529,-3.25 -0.12954,-0.055 -0.23551,-0.29125 -0.23551,-0.525 0,-0.23375 -0.12591,-0.425 -0.27979,-0.425 -0.15388,0 -0.37485,-0.30375 -0.49105,-0.675 -0.11619,-0.37125 -0.53029,-1.05661 -0.92021,-1.52302 -0.38992,-0.4664 -0.70895,-0.99366 -0.70895,-1.17168 0,-0.17801 -0.3375,-0.76615 -0.75,-1.30696 -0.4125,-0.54082 -0.75,-1.11606 -0.75,-1.27832 0,-0.16226 -0.11237,-0.34002 -0.24971,-0.39502 -0.13734,-0.055 -0.83704,-1.1125 -1.55489,-2.35 -0.71785,-1.2375 -1.68548,-2.7765 -2.15029,-3.42001 -0.46481,-0.64351 -0.84511,-1.34101 -0.84511,-1.55 0,-0.20899 -0.10125,-0.42499 -0.225,-0.47999 -0.12375,-0.055 -0.47914,-0.6 -0.78976,-1.21111 -0.31062,-0.61111 -0.81687,-1.38171 -1.125,-1.71245 -0.30813,-0.33074 -0.56024,-0.67739 -0.56024,-0.77033 0,-0.17107 -1.51562,-2.57971 -1.79719,-2.85611 -0.084,-0.0825 -0.19455,-0.3525 -0.24556,-0.6 -0.14726,-0.71443 -1.97068,-3.65293 -2.36331,-3.80854 -0.19583,-0.0776 -0.28263,-0.33244 -0.1929,-0.56628 0.0897,-0.23385 0.0283,-0.42518 -0.13642,-0.42518 -0.16477,0 -0.39242,-0.36989 -0.50588,-0.82199 -0.11347,-0.4521 -0.31041,-0.89085 -0.43765,-0.975 -0.12723,-0.0841 -0.67673,-0.96301 -1.22109,-1.95301 -0.54437,-0.99 -1.08939,-1.8675 -1.21116,-1.95 -0.12177,-0.0825 -0.43421,-0.6225 -0.69431,-1.2 -0.2601,-0.5775 -0.79411,-1.59 -1.18668,-2.25 -0.73803,-1.24079 -2.68431,-4.77481 -3.43002,-6.22815 -0.2337,-0.45548 -0.53674,-0.75905 -0.6734,-0.67459 -0.13666,0.0845 -0.17782,-0.11661 -0.0915,-0.44684 0.0878,-0.33583 0.009,-0.60042 -0.17798,-0.60042 -0.18424,0 -0.33499,-0.19285 -0.33499,-0.42857 0,-0.23571 -0.17032,-0.60696 -0.37849,-0.825 -0.40719,-0.42647 -1.20635,-2.00517 -1.26374,-2.49643 -0.0193,-0.165 -0.20769,-0.2629 -0.4187,-0.21756 -0.21102,0.0453 -0.31039,-0.0361 -0.22083,-0.18104 0.20192,-0.32671 -0.46303,-2.1514 -0.78401,-2.1514 -0.12882,0 -0.23423,-0.19285 -0.23423,-0.42857 0,-0.23571 -0.16875,-0.60763 -0.375,-0.82648 -0.20625,-0.21885 -1.63436,-2.96224 -3.17359,-6.09643 -1.53922,-3.13418 -3.39731,-6.91352 -4.12908,-8.39852 -0.73177,-1.485 -1.32866,-2.86875 -1.32641,-3.075 0.002,-0.20625 -0.13092,-0.375 -0.29592,-0.375 -0.165,0 -0.3,-0.19085 -0.3,-0.42413 0,-0.23327 -0.3882,-1.21202 -0.86268,-2.175 -1.28908,-2.61625 -1.83732,-3.90032 -1.83732,-4.3033 0,-0.19897 -0.18722,-0.28992 -0.41604,-0.20211 -0.28572,0.10964 -0.37151,-0.0106 -0.27387,-0.38404 0.0782,-0.29904 -0.005,-0.6344 -0.18395,-0.74526 -0.17938,-0.11086 -0.32614,-0.40475 -0.32614,-0.65308 0,-0.24834 -0.3375,-1.18937 -0.75,-2.09119 -0.4125,-0.90182 -0.75,-1.75941 -0.75,-1.90577 0,-0.14637 -0.12705,-0.31111 -0.28235,-0.36612 -0.1553,-0.055 -0.34724,-0.46236 -0.42655,-0.90524 -0.0793,-0.44289 -0.34516,-1.25289 -0.59079,-1.8 -0.24562,-0.54712 -0.86919,-2.14225 -1.38571,-3.54475 -0.51653,-1.4025 -1.06135,-2.82 -1.21072,-3.15 -0.14937,-0.33 -0.506,-1.37625 -0.79251,-2.325 -0.28652,-0.94875 -0.63925,-1.725 -0.78386,-1.725 -0.1446,0 -0.18502,-0.12604 -0.0898,-0.28008 0.0952,-0.15404 -0.0355,-0.86279 -0.29038,-1.575 -0.87825,-2.45378 -2.19677,-6.69733 -2.40644,-7.74492 -0.11558,-0.5775 -0.31253,-1.185 -0.43766,-1.35 -0.12513,-0.165 -0.32071,-0.94387 -0.43461,-1.73081 -0.13293,-0.91838 -0.32424,-1.35841 -0.5342,-1.22865 -0.18568,0.11476 -0.24193,0.0644 -0.13011,-0.11658 0.10835,-0.1753 -0.14836,-2.32241 -0.57046,-4.77135 -0.4221,-2.44894 -0.86875,-5.06011 -0.99254,-5.80261 -0.33145,-1.98796 -0.36383,-12.17746 -0.0524,-16.5 0.437,-6.06607 1.72394,-13.69555 3.13746,-18.6 0.26156,-0.9075 0.54825,-2.0422 0.6371,-2.52157 0.0889,-0.47935 0.57656,-2.09935 1.08379,-3.59999 0.50723,-1.50064 0.94846,-2.95654 0.98052,-3.23533 0.0321,-0.27879 0.28057,-0.95379 0.55225,-1.5 0.27169,-0.54621 0.98462,-2.20811 1.5843,-3.69311 1.2967,-3.21104 5.80922,-12.42434 6.37388,-13.01368 0.218,-0.22753 0.31396,-0.62841 0.21325,-0.89086 -0.10071,-0.26245 -0.0882,-0.38228 0.0277,-0.2663 0.11598,0.11598 0.66199,-0.49564 1.21336,-1.35915 1.13648,-1.77985 1.22403,-1.91028 2.66482,-3.97001 0.57709,-0.825 1.55364,-2.2425 2.17011,-3.15 0.61647,-0.9075 1.19587,-1.7175 1.28756,-1.8 0.0917,-0.0825 0.55997,-0.69 1.04063,-1.35 2.95266,-4.05433 11.50924,-12.94519 15.59436,-16.20357 0.825,-0.65804 1.5675,-1.26579 1.65,-1.35055 0.4655,-0.4783 3.34262,-2.69229 4.4899,-3.45505 0.73695,-0.48996 1.54695,-1.06642 1.8,-1.28102 1.21869,-1.03354 4.332,-3.11148 5.70188,-3.80564 0.84173,-0.42654 1.44789,-0.90907 1.34702,-1.07228 -0.10087,-0.16322 -0.0721,-0.27881 0.0639,-0.25688 0.52211,0.0842 1.58269,-0.40594 1.42622,-0.65912 -0.0904,-0.14624 -0.0214,-0.28276 0.15337,-0.30339 0.60752,-0.0717 0.7737,-0.1219 1.81771,-0.54894 0.5775,-0.23622 1.1175,-0.51589 1.2,-0.62149 0.0825,-0.1056 0.96,-0.56548 1.95,-1.02195 3.59446,-1.65734 5.102,-2.42465 5.20062,-2.64699 0.0553,-0.12478 0.22409,-0.15056 0.375,-0.0573 0.15091,0.0933 0.27438,0.0416 0.27438,-0.11475 0,-0.15637 0.47625,-0.37366 1.05833,-0.48286 0.66252,-0.12429 0.98179,-0.32241 0.85365,-0.52974 -0.12348,-0.19979 -0.0673,-0.24627 0.14166,-0.11714 0.1905,0.11773 0.51511,0.10952 0.72136,-0.0183 0.65829,-0.40781 5.12551,-1.90309 5.68559,-1.90309 0.29668,0 0.53942,-0.11744 0.53942,-0.26097 0,-0.14353 0.8333,-0.42491 1.85179,-0.62528 1.36407,-0.26837 1.73938,-0.44147 1.425,-0.65724 -0.29697,-0.20382 -0.13023,-0.2345 0.54821,-0.10088 0.53625,0.10563 0.975,0.0689 0.975,-0.0816 0,-0.15052 0.70875,-0.42267 1.575,-0.60477 0.86625,-0.1821 2.1825,-0.47713 2.925,-0.65563 1.96369,-0.47207 5.75355,-1.19841 8.85,-1.69614 1.485,-0.2387 3.105,-0.50165 3.6,-0.58433 2.06939,-0.34565 20.27194,-0.46868 23.69999,-0.16019 4.42228,0.39797 9.19857,1.03663 9.60077,1.28376 0.16458,0.10113 1.01427,0.26066 1.8882,0.35451 0.87394,0.0939 1.70866,0.24462 1.85496,0.33503 0.14629,0.0904 0.84875,0.29254 1.56103,0.44916 4.07076,0.89511 5.36812,1.2277 6.96661,1.78593 0.97436,0.34027 2.02061,0.61867 2.325,0.61867 0.30439,0 0.55343,0.11998 0.55343,0.26661 0,0.14664 0.50625,0.35871 1.125,0.47127 0.61875,0.11255 1.8,0.51967 2.625,0.90471 0.825,0.38504 1.77,0.74672 2.1,0.80374 0.33,0.057 0.6675,0.17694 0.75,0.26649 0.0825,0.0895 1.23,0.62335 2.55,1.18623 1.32,0.56288 2.98823,1.33036 3.70716,1.70552 0.96823,0.50525 1.44929,0.60605 1.85528,0.38877 0.80357,-0.43005 1.09015,-0.35762 0.44667,0.1129 -0.51027,0.37313 -0.40329,0.48361 1.31244,1.35549 1.02739,0.52208 2.01495,0.85842 2.19458,0.7474 0.18586,-0.11487 0.24124,-0.0638 0.12853,0.11862 -0.11088,0.1794 0.19884,0.49614 0.70364,0.71959 0.49594,0.21952 0.9017,0.50914 0.9017,0.6436 0,0.13446 0.12347,0.16816 0.27438,0.0749 0.15091,-0.0933 0.31966,-0.0675 0.375,0.0573 0.11013,0.2483 2.53876,1.87687 2.79892,1.87687 0.12914,0 2.62891,1.72675 4.21808,2.9137 0.174,0.12996 0.52957,0.3713 0.79015,0.5363 1.33115,0.84288 3.79825,2.61901 4.59347,3.30695 0.495,0.42821 1.20375,1.03969 1.575,1.35883 0.37125,0.31914 0.675,0.49544 0.675,0.39178 0,-0.10366 0.2798,0.16723 0.62178,0.60198 0.34197,0.43475 0.82244,0.79046 1.0677,0.79046 0.24526,0 0.36763,0.1267 0.27192,0.28156 -0.0957,0.15486 0.0417,0.40225 0.30523,0.54976 0.68913,0.38566 7.4841,7.12949 9.43337,9.36239 0.9075,1.03954 1.92279,2.17498 2.2562,2.52318 1.10147,1.15037 4.9438,6.38771 4.9438,6.73872 0,0.18941 0.10786,0.34439 0.23969,0.34439 0.13184,0 0.57059,0.53637 0.975,1.19193 0.40442,0.65556 0.91203,1.19556 1.12802,1.2 0.21599,0.004 0.30309,0.15306 0.19357,0.33028 -0.10953,0.17721 0.0513,0.61596 0.35729,0.975 0.30604,0.35903 0.72518,0.95654 0.93143,1.32779 0.20625,0.37125 0.54375,0.97875 0.75,1.35 0.20625,0.37125 0.44575,0.7425 0.53222,0.825 0.30587,0.29181 2.66188,4.53003 2.85303,5.13229 0.11198,0.35281 0.36624,0.54499 0.60157,0.45468 0.26144,-0.10032 0.34867,-0.003 0.24323,0.272 -0.16865,0.43949 2.25138,5.84103 2.61694,5.84103 0.11165,0 0.20301,0.30786 0.20301,0.68414 0,0.37628 0.27289,1.28753 0.60642,2.025 1.15301,2.54939 1.61403,3.75371 2.63787,6.89086 0.56541,1.7325 1.14706,3.35788 1.29255,3.61197 0.14549,0.25408 0.36516,1.19369 0.48816,2.08803 0.123,0.89433 0.33568,1.83394 0.47262,2.08803 0.29047,0.53894 1.43761,5.61263 1.66452,7.36197 0.0856,0.66 0.29491,2.01 0.46512,3 0.1702,0.99 0.37857,2.6775 0.46303,3.75 0.0845,1.0725 0.25839,2.085 0.38652,2.25 0.341,0.43911 0.36287,19.12461 0.0226,19.33488 -0.15493,0.0958 -0.34573,0.91458 -0.42401,1.81961 -0.16563,1.91499 -2.32064,12.37388 -2.59525,12.59551 -0.37403,0.30186 -1.42987,4.51114 -1.17159,4.67076 0.14652,0.0906 0.25574,0.32543 0.24272,0.52194 -0.0171,0.25763 -0.0659,0.25269 -0.175,-0.0177 -0.27865,-0.69056 -0.63247,-0.385 -0.86843,0.75 -0.12863,0.61875 -0.21116,1.22625 -0.18339,1.35 0.0278,0.12375 -0.0845,0.225 -0.2495,0.225 -0.165,0 -0.3,0.23816 -0.3,0.52924 0,0.29108 -0.25545,1.22812 -0.56767,2.08232 -0.31222,0.8542 -0.49222,1.62855 -0.4,1.72077 0.0922,0.0922 0.004,0.16767 -0.19548,0.16767 -0.19973,0 -0.34124,0.16875 -0.31445,0.375 0.10258,0.79002 -0.0367,1.39681 -0.40817,1.77857 -0.46509,0.47794 -1.78601,3.87465 -1.58497,4.07569 0.0782,0.0782 -0.0539,0.33824 -0.29355,0.57789 -0.23964,0.23964 -0.43571,0.6881 -0.43571,0.99657 0,0.30848 -0.12004,0.63506 -0.26677,0.72574 -0.14672,0.0907 -0.35269,0.50724 -0.45772,0.9257 -0.10502,0.41845 -0.52498,1.49107 -0.93323,2.38361 -0.40825,0.89253 -0.74228,1.82268 -0.74228,2.06701 0,0.24432 -0.10125,0.48922 -0.225,0.54422 -0.27979,0.12435 -2.17675,4.46191 -2.17574,4.975 3e-4,0.20625 -0.13426,0.375 -0.29926,0.375 -0.165,0 -0.3,0.12558 -0.3,0.27907 0,0.33626 -1.40553,3.48376 -3.0236,6.77093 -0.64975,1.32 -1.18025,2.5575 -1.17888,2.75 0.002,0.1925 -0.10333,0.395 -0.23267,0.45 -0.12933,0.055 -0.94934,1.585 -1.82224,3.4 -1.76063,3.66086 -2.03385,4.20209 -4.61895,9.15 -3.04455,5.8273 -5.29276,9.91502 -5.60992,10.2 -0.15546,0.13969 -1.30095,2.31539 -2.97041,5.64191 -0.38867,0.77445 -0.80351,1.47559 -0.92188,1.55809 -0.11837,0.0825 -0.30931,0.3525 -0.42432,0.6 -0.11501,0.2475 -0.53916,0.99 -0.94255,1.65 -0.40339,0.66 -0.95586,1.6725 -1.22772,2.25 -0.27186,0.5775 -0.59587,1.1175 -0.72002,1.2 -0.12415,0.0825 -0.67719,0.96 -1.22898,1.95 -0.55179,0.99 -1.11004,1.845 -1.24056,1.9 -0.13051,0.055 -0.2373,0.24499 -0.2373,0.42221 0,0.17721 -0.8775,1.77467 -1.95,3.54992 -1.0725,1.77524 -1.95,3.31196 -1.95,3.41494 0,0.20162 -1.22996,2.01537 -1.53456,2.26293 -0.10151,0.0825 -0.27936,0.45375 -0.39522,0.825 -0.11586,0.37125 -0.33655,0.675 -0.49043,0.675 -0.15388,0 -0.27979,0.2025 -0.27979,0.45 0,0.2475 -0.1054,0.45 -0.23423,0.45 -0.12882,0 -0.39581,0.37125 -0.5933,0.825 -0.19748,0.45375 -0.70261,1.365 -1.1225,2.025 -0.41989,0.66 -0.92916,1.53241 -1.1317,1.93869 -0.20255,0.40628 -0.67202,1.06725 -1.04327,1.46881 -0.37125,0.40156 -0.675,0.85551 -0.675,1.00877 0,0.15327 -0.64125,1.23746 -1.425,2.40932 -0.78375,1.17186 -1.84395,2.86313 -2.35601,3.75838 -0.51205,0.89525 -1.08449,1.85009 -1.27209,2.12188 -0.18759,0.27178 -0.88239,1.27639 -1.54399,2.23247 -0.6616,0.95608 -1.20291,1.77981 -1.20291,1.83052 0,0.0507 -0.60287,1.01009 -1.33972,2.13196 -0.73684,1.12187 -1.25599,2.17524 -1.15365,2.34083 0.10235,0.16559 0.0596,0.2229 -0.095,0.12737 -0.15459,-0.0956 -0.61299,0.32235 -1.01868,0.92864 -0.40568,0.6063 -0.8076,1.16986 -0.89315,1.25236 -0.0855,0.0825 -0.42121,0.65625 -0.7459,1.275 -0.32469,0.61875 -0.69465,1.125 -0.82213,1.125 -0.12749,-1e-5 -0.23179,0.11183 -0.23179,0.24853 0,0.40683 -2.77651,4.55146 -3.04904,4.55146 -0.13803,0 -0.25467,0.16875 -0.25921,0.375 -0.005,0.20625 -0.60097,1.24957 -1.32539,2.31848 -0.72442,1.06891 -1.23984,2.06852 -1.14539,2.22135 0.0945,0.15283 0.039,0.19585 -0.1232,0.0956 -0.16221,-0.10026 -0.62182,0.34775 -1.02135,0.99557 -0.39953,0.64783 -0.82767,1.18149 -0.95142,1.18593 -0.12375,0.004 -0.225,0.13988 -0.225,0.30098 0,0.16109 -0.60356,1.19285 -1.34125,2.29279 -0.73769,1.09994 -1.25683,2.13649 -1.15365,2.30345 0.1068,0.1728 0.0384,0.21135 -0.15874,0.0895 -0.1905,-0.11773 -0.34636,-0.0917 -0.34636,0.0577 0,0.23799 -0.23049,0.56022 -1.45385,2.03251 -0.14574,0.17539 -0.43846,0.64789 -0.65047,1.05 -0.21203,0.4021 -0.46654,0.7986 -0.56559,0.8811 -0.18368,0.15299 -0.84251,1.06562 -2.72278,3.77164 -0.58152,0.8369 -1.93481,2.77918 -3.00731,4.31619 -1.0725,1.53701 -2.085,3.00657 -2.25,3.26569 -0.165,0.25913 -0.46875,0.65523 -0.675,0.88024 -0.20625,0.225 -0.375,0.60992 -0.375,0.85538 0,0.24545 -0.135,0.36284 -0.3,0.26086 -0.165,-0.10198 -0.3,0.0184 -0.3,0.26739 0,0.24904 -0.17552,0.56075 -0.39005,0.6927 -0.21453,0.13195 -0.67518,0.64911 -1.02367,1.14925 -0.4953,0.71083 -0.56508,1.03827 -0.31967,1.5 0.24935,0.46912 0.23655,0.51845 -0.0623,0.23974 -0.2934,-0.27369 -0.60134,-0.056 -1.39917,0.98925 -0.56264,0.7371 -0.93062,1.48962 -0.81773,1.67227 0.1196,0.19353 0.069,0.24787 -0.1214,0.13023 -0.1875,-0.11589 -0.79126,0.47137 -1.41738,1.37864 -0.59989,0.86929 -1.41499,2.05303 -1.81132,2.63053 -0.39632,0.5775 -0.90746,1.2525 -1.13586,1.5 -0.22839,0.2475 -0.9283,1.18743 -1.55535,2.08875 -0.62705,0.90132 -1.45794,1.98132 -1.84643,2.4 -0.38848,0.41868 -0.78144,0.9975 -0.87324,1.28625 -0.0918,0.28875 -0.29281,0.525 -0.44669,0.525 -0.15388,0 -0.27979,0.14292 -0.27979,0.31758 0,0.30885 -1.61381,2.52072 -2.28324,3.12942 -0.18329,0.16665 -0.74276,0.9105 -1.24327,1.653 -1.05121,1.55943 -2.01328,2.7 -2.27746,2.7 -0.10098,0 -0.96264,-1.00098 -1.91481,-2.22444 z m 9.00535,-134.9457 c 1.84989,-0.17243 3.43105,-0.41697 3.51368,-0.54343 0.0826,-0.12646 0.75764,-0.29894 1.5,-0.38329 1.60653,-0.18255 7.88518,-1.74897 8.09975,-2.02075 0.0825,-0.1045 0.555,-0.28294 1.05,-0.39652 1.49262,-0.34251 2.55212,-0.83974 2.38061,-1.11725 -0.089,-0.14396 0.0423,-0.18342 0.29178,-0.0877 0.50787,0.19489 2.19766,-0.54502 7.82761,-3.42744 2.45615,-1.25751 7.98626,-5.13666 10.95,-7.681 2.52709,-2.16947 8.7,-8.69325 8.7,-9.19449 0,-0.12539 0.15436,-0.27944 0.34302,-0.34233 0.25478,-0.0849 0.25052,-0.30358 -0.0166,-0.84999 -0.3149,-0.64428 -0.30777,-0.67174 0.0574,-0.2211 0.31741,0.39167 0.50047,0.43108 0.76655,0.165 0.19226,-0.19226 0.35505,-0.49131 0.36176,-0.66456 0.007,-0.17325 0.40127,-0.76991 0.87681,-1.3259 0.50888,-0.59497 0.79147,-1.20151 0.68683,-1.47421 -0.11312,-0.29478 -0.0556,-0.3878 0.15813,-0.25571 0.32505,0.2009 1.16062,-0.92225 1.02977,-1.38418 -0.0351,-0.12375 0.0549,-0.225 0.19987,-0.225 0.14498,0 0.43612,-0.4165 0.64698,-0.92556 0.21085,-0.50905 0.53098,-1.0828 0.71139,-1.275 0.44063,-0.46939 1.97803,-3.62067 1.97803,-4.05442 0,-0.18976 0.14297,-0.34502 0.31771,-0.34502 0.17474,0 0.23427,-0.135 0.13229,-0.3 -0.10197,-0.165 -0.0424,-0.3 0.1323,-0.3 0.17474,0 0.28937,-0.10125 0.25475,-0.225 -0.0346,-0.12375 0.15205,-0.6975 0.41483,-1.275 0.93202,-2.04828 1.20311,-2.96833 0.98067,-3.32825 -0.13169,-0.21307 -0.0999,-0.28698 0.0766,-0.17793 0.2838,0.1754 0.9887,-1.62007 0.99274,-2.52863 9e-4,-0.22836 0.17566,-0.75269 0.38811,-1.16519 0.41115,-0.79836 1.09034,-3.83723 1.84389,-8.25 0.62847,-3.68039 0.88234,-12.34481 0.45565,-15.55121 -0.32032,-2.40703 -0.44666,-3.6182 -0.54678,-5.2415 -0.0235,-0.38099 -0.14397,-0.63013 -0.26772,-0.55365 -0.12375,0.0765 -0.24268,-0.2193 -0.26429,-0.65729 -0.0216,-0.43799 -0.1012,-1.13385 -0.17685,-1.54635 -0.0756,-0.4125 -0.24445,-1.32674 -0.37511,-2.03165 -0.13066,-0.70491 -0.35483,-1.35413 -0.49815,-1.44271 -0.14333,-0.0886 -0.2606,-0.39481 -0.2606,-0.68051 0,-0.59225 -1.71707,-6.01114 -2.05454,-6.4839 -0.12219,-0.17118 -0.68096,-1.39123 -1.24171,-2.71123 -0.56075,-1.32 -1.10405,-2.4675 -1.20733,-2.55 -0.10329,-0.0825 -0.49638,-0.79561 -0.87356,-1.58469 -0.64806,-1.35581 -3.48521,-5.89218 -3.88721,-6.21531 -0.10263,-0.0825 -0.36812,-0.50288 -0.58997,-0.93418 -0.22185,-0.43129 -0.73695,-1.14393 -1.14467,-1.58363 -0.40772,-0.43971 -1.38787,-1.57183 -2.17812,-2.51583 -1.91913,-2.2925 -8.12289,-8.41786 -8.12289,-8.02023 0,0.0846 -0.2616,-0.0824 -0.58133,-0.37113 -1.18834,-1.07318 -2.57794,-2.14785 -2.86867,-2.21853 -0.165,-0.0401 -0.435,-0.18813 -0.6,-0.32891 -0.90165,-0.76934 -3.44848,-2.53815 -4.21457,-2.92709 -0.48698,-0.24723 -0.95293,-0.52044 -1.03543,-0.60714 -0.5036,-0.5292 -4.00626,-2.11675 -4.36582,-1.97877 -0.23879,0.0916 -0.43584,0.002 -0.43787,-0.19898 -0.003,-0.31745 -3.57087,-1.97358 -4.58247,-2.1272 -0.20011,-0.0304 -0.52455,-0.15571 -0.72099,-0.27849 -0.47009,-0.29384 -4.34352,-1.52537 -6.24285,-1.98488 -0.825,-0.19959 -1.9725,-0.48627 -2.55,-0.63706 -2.92082,-0.76266 -8.79233,-1.33816 -13.49999,-1.3232 -3.62025,0.0115 -8.62581,0.35399 -9.05558,0.6196 -0.11485,0.071 -0.99307,0.20655 -1.95161,0.30128 -0.95855,0.0947 -2.48531,0.37475 -3.39281,0.62228 -0.9075,0.24752 -2.1225,0.56299 -2.7,0.70105 -1.07178,0.25622 -3.56987,1.05429 -4.65,1.48556 -5.19156,2.07284 -10.07747,4.30385 -10.8525,4.95548 -0.19625,0.165 -1.84945,1.245 -3.67379,2.4 -1.82433,1.155 -3.31849,2.27672 -3.32034,2.4927 -0.002,0.21599 -0.13396,0.312 -0.29356,0.21336 -0.1596,-0.0986 -0.46208,0.0959 -0.67217,0.4323 -0.21008,0.3364 -0.55054,0.61164 -0.75657,0.61164 -0.20602,0 -2.10226,1.72125 -4.21386,3.825 -6.07706,6.05447 -7.66062,8.01194 -6.91433,8.54692 0.30074,0.21559 0.27629,0.24622 -0.10075,0.1262 -0.29899,-0.0952 -0.68894,0.10325 -0.97619,0.4967 -1.69736,2.32494 -1.97594,2.75734 -1.97594,3.06696 0,0.18988 -0.27,0.58957 -0.6,0.88822 -0.33,0.29864 -0.6,0.6681 -0.6,0.82101 0,0.15292 -0.44243,1.04324 -0.98317,1.97851 -0.54073,0.93526 -1.43185,2.71298 -1.98026,3.95048 -0.5484,1.2375 -1.25884,2.83368 -1.57875,3.54708 -0.31991,0.71339 -0.66307,1.72589 -0.76258,2.25 -0.0995,0.5241 -0.36831,1.32551 -0.59733,1.7809 -0.22903,0.45539 -0.43391,1.29372 -0.45531,1.86294 -0.0214,0.56923 -0.12683,0.98063 -0.23428,0.91422 -0.40031,-0.2474 -1.58737,6.66807 -2.14976,12.52379 -0.24889,2.59141 -0.25169,4.74332 -0.0106,8.1 0.30889,4.29998 1.55035,11.94381 2.15538,13.27107 0.15044,0.33 0.48891,1.41 0.75217,2.4 0.57699,2.16983 0.97879,3.23406 2.99267,7.92654 0.59638,1.3896 1.347,2.89544 1.66805,3.34631 0.32105,0.45087 0.58372,0.96768 0.58372,1.14846 0,0.18078 0.12591,0.32869 0.27979,0.32869 0.15388,0 0.37563,0.30197 0.49277,0.67106 0.18678,0.58851 1.33727,2.51928 2.0134,3.37894 0.12977,0.165 0.65082,0.87799 1.15789,1.58443 0.78666,1.09596 0.99035,1.22803 1.38816,0.9 0.40738,-0.33591 0.42501,-0.30705 0.13971,0.22862 -0.27561,0.51747 -0.13705,0.86153 0.88864,2.20661 0.91109,1.19479 1.28101,1.49181 1.47831,1.18694 0.18313,-0.28297 0.24007,-0.17855 0.18724,0.3434 -0.0591,0.58417 0.0468,0.72898 0.4792,0.65493 0.3573,-0.0612 0.47891,0.0282 0.34127,0.25092 -0.28008,0.45319 1.66048,2.4557 2.18478,2.25452 0.22833,-0.0876 0.31633,-0.0181 0.20504,0.16197 -0.26965,0.43628 0.78266,1.53461 1.28546,1.34167 0.24524,-0.0941 0.32775,-0.0249 0.20568,0.17266 -0.19083,0.30877 0.26883,0.77835 2.38564,2.43709 0.47464,0.37193 1.08657,0.87873 1.35985,1.12623 1.4503,1.31351 6.12082,4.5 6.59574,4.5 0.15479,0 0.32643,0.10679 0.38143,0.23731 0.20166,0.47854 3.58683,2.17584 3.93781,1.97439 0.19921,-0.11434 0.2601,-0.0954 0.13533,0.0421 -0.30234,0.33313 4.79833,2.85754 5.34775,2.6467 0.23601,-0.0906 0.42911,-0.0221 0.42911,0.15211 0,0.17422 0.77625,0.55624 1.725,0.84892 0.94875,0.29269 1.7925,0.60542 1.875,0.69496 0.2854,0.30975 4.22562,1.22312 4.51226,1.04597 0.15826,-0.0978 0.28774,-0.0525 0.28774,0.10076 0,0.36548 5.57977,1.51593 8.21275,1.69333 1.13451,0.0764 2.14102,0.21725 2.23669,0.31292 0.27503,0.27504 8.73263,0.12572 12.43712,-0.21958 z m -54.65645,-20.4185 c -0.37947,-0.63189 -0.37308,-0.63828 0.1435,-0.1435 0.29737,0.28482 0.4761,0.58243 0.39717,0.66136 -0.0789,0.0789 -0.32222,-0.15411 -0.54067,-0.51786 z m 101.50755,-8.93131 c -0.10876,-0.17598 -0.13341,-0.3843 -0.0548,-0.46294 0.0786,-0.0786 0.22292,0.0653 0.32063,0.31996 0.20285,0.52863 0.0299,0.62161 -0.26586,0.14298 z m 10.38602,-40.05504 c 0.0144,-0.34949 0.0855,-0.42057 0.18125,-0.18125 0.0867,0.21656 0.076,0.47531 -0.0237,0.575 -0.0997,0.0997 -0.1706,-0.0775 -0.15757,-0.39375 z m -36.17369,-53.825 c 0.10198,-0.165 0.32041,-0.3 0.48541,-0.3 0.165,0 0.21657,0.135 0.11459,0.3 -0.10197,0.165 -0.3204,0.3 -0.4854,0.3 -0.165,0 -0.21657,-0.135 -0.1146,-0.3 z m 75.15,14.7 c 0,-0.165 0.135,-0.3 0.3,-0.3 0.165,0 0.3,0.135 0.3,0.3 0,0.165 -0.135,0.3 -0.3,0.3 -0.165,0 -0.3,-0.135 -0.3,-0.3 z m -41.25,-51.9 c -0.10197,-0.165 -0.0424,-0.3 0.1323,-0.3 0.17474,0 0.3177,0.135 0.3177,0.3 0,0.165 -0.0595,0.3 -0.13229,0.3 -0.0728,0 -0.21573,-0.135 -0.31771,-0.3 z m -6.28718,-4.47927 c -0.0949,-0.1536 -0.0579,-0.35016 0.0823,-0.4368 0.14019,-0.0866 0.25489,0.039 0.25489,0.27927 0,0.50585 -0.0946,0.55004 -0.33718,0.15753 z m -23.91907,-9.82566 c 0.21656,-0.0867 0.47532,-0.076 0.575,0.0237 0.0997,0.0997 -0.0775,0.17059 -0.39375,0.15757 -0.34948,-0.0144 -0.42057,-0.0855 -0.18125,-0.18125 z"
           id="path9258" />
      </g>
      <ellipse
         style="opacity:0.2;fill:#ffffff;fill-opacity:0.99607843;stroke:none;stroke-width:12;stroke-linecap:round;stroke-linejoin:round;stroke-miterlimit:4;stroke-dasharray:72, 72;stroke-dashoffset:0;stroke-opacity:1"
         id="path9327"
         cx="251.52798"
         cy="680.21997"
         rx="320.21835"
         ry="274.35541" />
    </g>
  </g>
</svg>
